<?xml version="1.0" encoding="UTF-8"?>
<svg xmlns="http://www.w3.org/2000/svg" version="1.1" width="300" height="300" viewBox="0 0 300 300"><rect x="0" y="0" width="300" height="300" fill="#fefefe"/><g transform="scale(9.091)"><g transform="translate(2,2)"><path fill-rule="evenodd" d="M11 0L11 1L9 1L9 2L11 2L11 1L13 1L13 0ZM14 0L14 1L15 1L15 0ZM17 0L17 1L16 1L16 2L18 2L18 3L16 3L16 5L17 5L17 4L18 4L18 5L20 5L20 4L21 4L21 1L20 1L20 2L19 2L19 1L18 1L18 0ZM12 2L12 4L13 4L13 5L11 5L11 6L10 6L10 8L9 8L9 10L8 10L8 11L9 11L9 13L8 13L8 12L5 12L5 10L6 10L6 11L7 11L7 10L6 10L6 9L8 9L8 8L5 8L5 9L4 9L4 10L3 10L3 9L2 9L2 8L0 8L0 9L2 9L2 10L0 10L0 11L1 11L1 12L0 12L0 14L1 14L1 16L2 16L2 17L0 17L0 21L1 21L1 19L3 19L3 20L4 20L4 21L5 21L5 20L4 20L4 19L5 19L5 18L4 18L4 17L3 17L3 15L5 15L5 16L6 16L6 17L8 17L8 16L11 16L11 17L10 17L10 18L9 18L9 19L7 19L7 18L6 18L6 19L7 19L7 20L6 20L6 21L7 21L7 20L9 20L9 21L8 21L8 24L9 24L9 22L10 22L10 23L11 23L11 24L10 24L10 25L9 25L9 27L8 27L8 29L9 29L9 28L10 28L10 27L11 27L11 26L10 26L10 25L11 25L11 24L12 24L12 23L14 23L14 24L13 24L13 25L12 25L12 26L13 26L13 27L12 27L12 29L13 29L13 28L14 28L14 29L18 29L18 28L17 28L17 27L16 27L16 25L15 25L15 24L17 24L17 22L16 22L16 19L17 19L17 17L18 17L18 16L17 16L17 15L16 15L16 14L18 14L18 15L19 15L19 14L20 14L20 12L19 12L19 13L17 13L17 12L15 12L15 11L18 11L18 10L21 10L21 8L20 8L20 9L18 9L18 8L17 8L17 6L16 6L16 7L15 7L15 4L13 4L13 2ZM8 3L8 5L10 5L10 4L9 4L9 3ZM18 3L18 4L19 4L19 3ZM8 6L8 7L9 7L9 6ZM11 6L11 7L12 7L12 9L11 9L11 8L10 8L10 10L9 10L9 11L10 11L10 13L9 13L9 15L10 15L10 14L13 14L13 15L12 15L12 17L11 17L11 18L10 18L10 19L11 19L11 22L15 22L15 20L14 20L14 19L15 19L15 18L14 18L14 19L13 19L13 18L12 18L12 17L13 17L13 16L14 16L14 17L15 17L15 16L14 16L14 14L15 14L15 12L14 12L14 11L15 11L15 10L12 10L12 9L13 9L13 8L14 8L14 6L13 6L13 7L12 7L12 6ZM18 6L18 7L19 7L19 6ZM20 6L20 7L21 7L21 6ZM15 8L15 9L16 9L16 10L18 10L18 9L17 9L17 8ZM24 8L24 12L25 12L25 9L26 9L26 10L28 10L28 9L26 9L26 8ZM10 10L10 11L11 11L11 10ZM22 10L22 12L21 12L21 15L20 15L20 17L19 17L19 18L18 18L18 19L21 19L21 18L20 18L20 17L22 17L22 18L23 18L23 17L22 17L22 16L24 16L24 15L22 15L22 14L23 14L23 10ZM3 11L3 14L4 14L4 13L5 13L5 14L7 14L7 15L6 15L6 16L7 16L7 15L8 15L8 13L5 13L5 12L4 12L4 11ZM12 11L12 12L11 12L11 13L13 13L13 11ZM1 12L1 14L2 14L2 12ZM28 12L28 13L26 13L26 17L24 17L24 18L28 18L28 19L29 19L29 17L27 17L27 14L29 14L29 12ZM24 13L24 14L25 14L25 13ZM21 15L21 16L22 16L22 15ZM28 15L28 16L29 16L29 15ZM3 18L3 19L4 19L4 18ZM11 18L11 19L12 19L12 21L14 21L14 20L13 20L13 19L12 19L12 18ZM22 19L22 20L19 20L19 23L18 23L18 24L19 24L19 25L18 25L18 26L19 26L19 25L20 25L20 27L19 27L19 28L20 28L20 27L21 27L21 25L23 25L23 26L22 26L22 28L23 28L23 26L24 26L24 27L26 27L26 28L24 28L24 29L27 29L27 27L28 27L28 28L29 28L29 27L28 27L28 26L29 26L29 25L28 25L28 24L29 24L29 23L28 23L28 24L27 24L27 25L28 25L28 26L27 26L27 27L26 27L26 26L24 26L24 25L25 25L25 23L27 23L27 22L26 22L26 21L29 21L29 20L26 20L26 21L25 21L25 19ZM17 20L17 21L18 21L18 20ZM21 21L21 24L24 24L24 21ZM22 22L22 23L23 23L23 22ZM19 23L19 24L20 24L20 23ZM14 25L14 26L15 26L15 25ZM0 0L0 7L7 7L7 0ZM1 1L1 6L6 6L6 1ZM2 2L2 5L5 5L5 2ZM22 0L22 7L29 7L29 0ZM23 1L23 6L28 6L28 1ZM24 2L24 5L27 5L27 2ZM0 22L0 29L7 29L7 22ZM1 23L1 28L6 28L6 23ZM2 24L2 27L5 27L5 24Z" fill="#000000"/></g></g></svg>
