<?xml version="1.0" encoding="UTF-8"?>
<svg xmlns="http://www.w3.org/2000/svg" version="1.1" width="300" height="300" viewBox="0 0 300 300"><rect x="0" y="0" width="300" height="300" fill="#fefefe"/><g transform="scale(10.345)"><g transform="translate(2,2)"><path fill-rule="evenodd" d="M11 0L11 1L9 1L9 2L11 2L11 1L13 1L13 2L12 2L12 4L13 4L13 5L11 5L11 6L10 6L10 8L9 8L9 9L8 9L8 8L5 8L5 9L2 9L2 8L0 8L0 17L1 17L1 13L2 13L2 11L3 11L3 12L4 12L4 13L3 13L3 14L2 14L2 15L3 15L3 16L2 16L2 17L3 17L3 16L4 16L4 17L8 17L8 20L9 20L9 21L10 21L10 20L11 20L11 19L13 19L13 18L12 18L12 17L15 17L15 16L12 16L12 17L10 17L10 16L11 16L11 14L12 14L12 12L13 12L13 11L14 11L14 10L13 10L13 9L15 9L15 11L18 11L18 13L19 13L19 15L18 15L18 14L17 14L17 16L16 16L16 19L14 19L14 20L13 20L13 22L16 22L16 21L18 21L18 22L19 22L19 21L21 21L21 16L22 16L22 17L23 17L23 15L24 15L24 16L25 16L25 14L24 14L24 13L25 13L25 10L24 10L24 9L22 9L22 8L20 8L20 9L19 9L19 10L21 10L21 11L20 11L20 12L19 12L19 11L18 11L18 10L17 10L17 9L15 9L15 8L17 8L17 6L16 6L16 7L15 7L15 5L14 5L14 4L16 4L16 5L17 5L17 3L16 3L16 2L17 2L17 1L16 1L16 2L15 2L15 0L14 0L14 1L13 1L13 0ZM13 2L13 3L15 3L15 2ZM8 3L8 5L10 5L10 4L9 4L9 3ZM8 6L8 7L9 7L9 6ZM11 6L11 7L12 7L12 8L14 8L14 6L13 6L13 7L12 7L12 6ZM10 8L10 10L9 10L9 11L10 11L10 13L9 13L9 12L7 12L7 11L6 11L6 10L8 10L8 9L6 9L6 10L3 10L3 11L4 11L4 12L5 12L5 13L4 13L4 15L5 15L5 16L8 16L8 15L10 15L10 14L11 14L11 11L12 11L12 9L11 9L11 8ZM1 10L1 11L2 11L2 10ZM10 10L10 11L11 11L11 10ZM22 10L22 12L20 12L20 14L22 14L22 15L23 15L23 13L24 13L24 11L23 11L23 10ZM6 12L6 13L5 13L5 14L6 14L6 15L8 15L8 14L6 14L6 13L7 13L7 12ZM15 12L15 14L14 14L14 15L16 15L16 12ZM20 15L20 16L21 16L21 15ZM9 17L9 18L10 18L10 19L11 19L11 18L10 18L10 17ZM17 17L17 20L20 20L20 17ZM18 18L18 19L19 19L19 18ZM24 18L24 19L23 19L23 20L22 20L22 21L23 21L23 22L21 22L21 23L19 23L19 24L21 24L21 25L22 25L22 24L21 24L21 23L23 23L23 22L24 22L24 25L25 25L25 21L23 21L23 20L24 20L24 19L25 19L25 18ZM11 21L11 22L9 22L9 23L8 23L8 25L10 25L10 23L11 23L11 25L12 25L12 24L13 24L13 23L11 23L11 22L12 22L12 21ZM14 23L14 24L15 24L15 23ZM16 23L16 25L18 25L18 23ZM0 0L0 7L7 7L7 0ZM1 1L1 6L6 6L6 1ZM2 2L2 5L5 5L5 2ZM18 0L18 7L25 7L25 0ZM19 1L19 6L24 6L24 1ZM20 2L20 5L23 5L23 2ZM0 18L0 25L7 25L7 18ZM1 19L1 24L6 24L6 19ZM2 20L2 23L5 23L5 20Z" fill="#000000"/></g></g></svg>
